<svg preserveAspectRatio="none" width="100%" height="100%" overflow="visible" style="display: block;" viewBox="0 0 166.107 587.367" fill="none" xmlns="http://www.w3.org/2000/svg">
<g id="Group 2131328687">
<path id="Vector" d="M1.36279 394.836L1.36279 430.857C1.3628 516.895 40.5516 587.956 88.305 586.668L165.426 586.668L165.426 396.867C165.426 284.076 128.79 209.404 83.6091 209.404L1.11529 209.404L1.36279 394.836Z" stroke="var(--stroke-0, #C4B2F7)" stroke-width="1.36364" stroke-miterlimit="10"/>
<path id="Vector_2" d="M0.935177 222.136L0.935175 186.114L0.687669 0.681816L83.1815 0.681824" stroke="var(--stroke-0, #C4B2F7)" stroke-width="1.36364" stroke-miterlimit="10"/>
<path id="Vector_3" d="M59.5921 298.6C92.1273 298.6 118.502 244.832 118.502 178.506C118.502 112.18 92.1273 58.4121 59.5921 58.4121C27.0568 58.4121 0.681817 112.18 0.68182 178.506C0.681823 244.832 27.0568 298.6 59.5921 298.6Z" stroke="var(--stroke-0, #C4B2F7)" stroke-width="1.36364" stroke-miterlimit="10"/>
</g>
</svg>
