<svg preserveAspectRatio="none" width="100%" height="100%" overflow="visible" style="display: block;" viewBox="0 0 163.994 31.3108" fill="none" xmlns="http://www.w3.org/2000/svg">
<g id="Layer_1-2">
<path id="Vector" d="M31.7042 14.4782C31.6777 11.9553 31.5828 9.41616 31.3081 6.90311C31.1536 5.51434 31.1061 3.54983 30.2554 2.3548C29.4333 1.18589 28.1136 0.918151 26.785 0.695035C24.8055 0.35764 22.7828 0.227035 20.7746 0.132347C16.1357 -0.0831509 11.4218 -0.0711788 6.80162 0.438179C5.47528 0.587286 3.83997 0.672179 2.63611 1.31214C1.43336 1.9521 1.06039 3.08401 0.804393 4.30516C-0.0629161 8.44424 -0.0309162 12.8576 0.0231527 17.0652C0.0518423 19.3247 0.140118 21.5874 0.3586 23.8371C0.503152 25.3216 0.607979 26.9727 1.17956 28.3756C2.27418 31.0606 6.59859 30.8897 8.98534 31.0628C13.771 31.4089 18.5765 31.3926 23.3599 31.0149C25.814 30.8179 29.7103 30.8995 30.6471 28.0839C31.2396 26.2957 31.35 24.2996 31.4857 22.4374C31.6777 19.7894 31.7329 17.1327 31.7064 14.4782H31.7042ZM26.0976 24.3268C26.0976 24.4781 25.9729 24.6011 25.8195 24.6011H11.2154C11.062 24.6011 10.9373 24.4781 10.9373 24.3268V16.2315H12.2913C14.5732 16.2315 16.4226 14.4074 16.4237 12.1578V8.04481H11.3898C8.94672 8.04481 6.96604 9.99843 6.96604 12.4081V20.5807C6.96604 21.7039 7.67555 22.7073 8.74369 23.0948C8.90038 23.1503 9.00631 23.2962 9.00741 23.4605V24.0569C9.00741 24.2703 8.83307 24.4444 8.61679 24.4455C8.57928 24.4455 8.54286 24.4411 8.50645 24.4302C6.78728 23.9165 5.611 22.3536 5.611 20.5807V12.4092C5.611 9.26161 8.19748 6.70938 11.3898 6.70829H17.0846C17.4697 6.70829 17.7831 7.0163 17.7831 7.39723V12.1589C17.7798 15.1464 15.3257 17.5681 12.2968 17.5724V23.2679H15.542V19.1571C15.542 19.0058 15.6667 18.8828 15.8201 18.8828H16.619C16.7724 18.8828 16.8971 19.0058 16.8971 19.1571V23.2668H20.1434V19.1571C20.1434 19.0058 20.2681 18.8828 20.4215 18.8828H21.2204C21.3737 18.8828 21.4984 19.0058 21.4984 19.1571V23.2668H24.7448V16.939C24.7448 14.6882 22.8954 12.8641 20.6135 12.8641H19.9933C19.8399 12.8641 19.7153 12.7411 19.7153 12.5898V11.8008C19.7153 11.6495 19.8399 11.5265 19.9933 11.5265H20.6135C23.6446 11.5265 26.102 13.9503 26.102 16.9401L26.0998 24.3312L26.0976 24.329V24.3268ZM10.7299 12.1915C10.7299 11.7094 11.126 11.3175 11.616 11.3175C12.1059 11.3175 12.502 11.7083 12.502 12.1915C12.502 12.6747 12.1059 13.0655 11.616 13.0655C11.1271 13.0655 10.731 12.6747 10.7299 12.1926V12.1915Z" fill="var(--fill-0, white)"/>
<path id="Vector_2" d="M39.8422 15.019C39.8422 11.4372 42.3625 9.08851 45.9343 9.08851C49.5062 9.08851 51.9073 11.5548 51.9073 15.019C51.9073 18.4833 49.6055 21.0084 46.0733 21.0084C44.8629 21.0084 43.414 20.6557 42.6604 19.6969L42.5214 19.5205V26.6646H39.8422V15.019ZM49.2281 15.0386C49.2281 12.9642 48.0375 11.496 45.8549 11.496C43.6722 11.496 42.5214 12.9838 42.5214 15.0386C42.5214 17.0935 43.6921 18.5813 45.8549 18.5813C48.0176 18.5813 49.2281 17.0946 49.2281 15.0386Z" fill="var(--fill-0, white)"/>
<path id="Vector_3" d="M64.8229 15.019C64.8229 11.4372 62.3026 9.08851 58.7308 9.08851C55.1589 9.08851 52.7578 11.5548 52.7578 15.019C52.7578 18.4833 55.0596 21.0084 58.5917 21.0084C59.8022 21.0084 61.2511 20.6557 62.0047 19.6969L62.1437 19.5205V20.8124H64.8229V15.019ZM55.4359 15.0386C55.4359 12.9642 56.6265 11.496 58.8091 11.496C60.9917 11.496 62.1426 12.9838 62.1426 15.0386C62.1426 17.0935 60.9719 18.5813 58.8091 18.5813C56.6464 18.5813 55.4359 17.0946 55.4359 15.0386Z" fill="var(--fill-0, white)"/>
<path id="Vector_4" d="M68.0342 24.2571H70.8127C72.6786 24.2571 73.7898 22.8477 73.888 21.1259V19.9319L73.7688 20.0299C72.896 20.6949 72.1214 21.0083 70.8513 21.0083C67.6767 21.0083 65.8306 18.9927 65.8306 15.8212V9.26373H68.5098V15.8984C68.5098 17.5038 69.6011 18.5606 71.2088 18.5606C73.0946 18.5606 73.9078 17.1316 73.9078 15.4685V9.26373H76.587V20.6753C76.587 24.4726 74.166 26.6646 70.4154 26.6646H68.0342V24.2571Z" fill="var(--fill-0, white)"/>
<path id="Vector_5" d="M88.8717 14.3149C88.8717 11.2609 90.2013 9.10808 93.4355 9.10808C94.785 9.10808 96.0352 9.51948 96.8485 10.4979C97.6418 9.51948 98.9119 9.10808 100.261 9.10808C103.517 9.10808 104.805 11.2609 104.805 14.3149V20.8135H102.126V13.8458C102.126 12.6518 101.492 11.5166 100.122 11.5166C98.753 11.5166 98.1583 12.5735 98.1583 13.8458V20.8135H95.5188V13.8458C95.5188 12.6518 94.8843 11.5166 93.515 11.5166C92.1456 11.5166 91.5508 12.593 91.5508 13.8458V20.8135H88.8717V14.3149Z" fill="var(--fill-0, white)"/>
<path id="Vector_6" d="M111.958 9.02973C115.629 9.02973 118.13 11.3393 118.13 15.019C118.13 18.6988 115.629 21.0083 111.958 21.0083C108.287 21.0083 105.767 18.6988 105.767 15.019C105.767 11.3393 108.307 9.02973 111.958 9.02973ZM115.451 15.019C115.451 12.9642 114.042 11.4568 111.958 11.4568C109.875 11.4568 108.426 12.925 108.426 15.019C108.426 17.1131 109.796 18.5813 111.958 18.5813C114.121 18.5813 115.451 17.0739 115.451 15.019Z" fill="var(--fill-0, white)"/>
<path id="Vector_7" d="M119.089 14.5685C119.089 11.1433 120.975 9.107 124.467 9.107C127.959 9.107 129.845 11.1423 129.845 14.5685V20.8124H127.166V14.1766C127.166 12.5713 126.075 11.5145 124.467 11.5145C122.859 11.5145 121.768 12.5713 121.768 14.1766V20.8124H119.089V14.5685Z" fill="var(--fill-0, white)"/>
<path id="Vector_8" d="M136.062 20.9692C132.788 20.9496 130.902 18.7184 130.902 15.5469V4.587H133.581V9.26482H136.062V11.6919H133.601V15.6655C133.601 17.1729 134.434 18.5236 136.062 18.5628V20.9703V20.9692Z" fill="var(--fill-0, white)"/>
<path id="Vector_9" d="M87.3186 20.9692C84.0447 20.9496 82.1589 18.7184 82.1589 15.5469V4.58699H84.8381V9.26481H87.3186V11.6919H84.858V15.6655C84.858 17.1729 85.6911 18.5236 87.3186 18.5628V20.9702V20.9692Z" fill="var(--fill-0, white)"/>
<path id="Vector_10" d="M137.22 3.41156H139.9V10.1442L140.019 10.0463C140.892 9.38019 141.905 9.107 142.996 9.107C146.29 9.107 147.977 11.0835 147.977 14.2746V20.8124H145.298V14.1766C145.298 12.5713 144.206 11.5145 142.599 11.5145C140.713 11.5145 139.9 12.9435 139.9 14.6261V20.8114H137.22V3.41156Z" fill="var(--fill-0, white)"/>
<path id="Vector_11" d="M149.248 3.41156H151.927V20.8124H149.248V3.41156Z" fill="var(--fill-0, white)"/>
<path id="Vector_12" d="M155.441 24.2571H158.22C160.086 24.2571 161.197 22.8477 161.295 21.1259V19.9319L161.176 20.0299C160.303 20.6949 159.529 21.0083 158.259 21.0083C155.084 21.0083 153.238 18.9927 153.238 15.8212V9.26373H155.917V15.8984C155.917 17.5038 157.008 18.5606 158.616 18.5606C160.502 18.5606 161.315 17.1316 161.315 15.4685V9.26373H163.994V20.6753C163.994 24.4726 161.573 26.6646 157.823 26.6646H155.441V24.2571Z" fill="var(--fill-0, white)"/>
<path id="Vector_13" d="M78.0026 6.23153C78.0059 5.37934 78.6967 4.68496 79.5607 4.66537C80.4136 4.66537 81.09 5.39022 81.09 6.23153C81.111 7.07611 80.4335 7.77702 79.5772 7.7977C79.5717 7.7977 79.5662 7.7977 79.5607 7.7977C78.6922 7.78899 77.9949 7.08808 78.0026 6.23153Z" fill="var(--fill-0, white)"/>
<path id="Vector_14" d="M80.8852 9.26482H78.2061V20.8124H80.8852V9.26482Z" fill="var(--fill-0, white)"/>
</g>
</svg>
